<svg xmlns="http://www.w3.org/2000/svg" width="7" height="13" viewBox="0 0 7 13"><defs><style>.cls-1{fill:#343332;fill-rule:evenodd}</style></defs><path id="f_icon" class="cls-1" d="M1104.74 3585h-1.68a2.959 2.959 0 0 0-3.11 3.2v1.47h-1.69a.267.267 0 0 0-.26.27v2.14a.265.265 0 0 0 .26.26h1.69v5.39a.269.269 0 0 0 .27.27h2.2a.267.267 0 0 0 .26-.27v-5.39h1.98a.265.265 0 0 0 .26-.26v-2.14a.273.273 0 0 0-.08-.19.25.25 0 0 0-.18-.08h-1.98v-1.25a.75.75 0 0 1 .92-.9h1.14a.267.267 0 0 0 .26-.27v-1.98a.267.267 0 0 0-.26-.27z" transform="translate(-1098 -3585)"/></svg>