<svg xmlns="http://www.w3.org/2000/svg" width="107.969" height="12" viewBox="0 0 107.969 12"><defs><style>.cls-1{fill:#343230;fill-rule:evenodd}</style></defs><path id="faynblat" class="cls-1" d="M90.35 46.584v-4.25h5.628v-2.739H90.35v-2.017h6.226v-2.9h-9.522v11.9h3.3zm11.934 0l.847-2.125h4.59l.872 2.125h3.536L107.066 34.6h-3.18l-5.071 11.984h3.469zm3.163-8.077l1.328 3.387H104.1zm12.972 3.619v4.458h3.3v-4.507l4.524-7.4h-3.694l-2.457 4.341-2.432-4.341h-3.76zm13.811 4.458V40.06l5.088 6.524h2.882v-11.9h-3.262v6.292l-4.889-6.292h-3.08v11.9h3.262zm17.917 0a5.57 5.57 0 0 0 3.318-.864 2.784 2.784 0 0 0 1.192-2.386 2.813 2.813 0 0 0-.606-1.9 3.9 3.9 0 0 0-1.762-1.091 2.754 2.754 0 0 0 1.837-2.679 2.592 2.592 0 0 0-.772-1.93 4.454 4.454 0 0 0-3.245-1.055h-6.1v11.9h6.14zm-2.91-4.848h2.51a2.068 2.068 0 0 1 1.209.292.931.931 0 0 1 .406.8.985.985 0 0 1-.414.854 1.985 1.985 0 0 1-1.168.3h-2.543v-2.245zm0-4.449h2.136a1.916 1.916 0 0 1 1.11.269.88.88 0 0 1 .381.764q0 1.083-1.557 1.084h-2.07v-2.117zm19.687 9.3v-2.9h-5.769v-9.006h-3.295v11.9h9.064zm5.618 0l.847-2.125h4.59l.872 2.125h3.536L177.324 34.6h-3.18l-5.071 11.987h3.469zm3.163-8.077l1.328 3.387h-2.673zm12.441-.93v9.006h3.3v-9.008h3.578v-2.9h-10.447v2.9h3.569z" transform="translate(-87.063 -34.594)"/></svg>