<svg xmlns="http://www.w3.org/2000/svg" width="14" height="11" viewBox="0 0 14 11"><defs><style>.cls-1{fill:#343332;fill-rule:evenodd;filter:url(#filter)}</style><filter id="filter" x="1069" y="3587" width="14" height="11" filterUnits="userSpaceOnUse"><feFlood result="flood" flood-color="#343332"/><feComposite result="composite" operator="in" in2="SourceGraphic"/><feBlend result="blend" in2="SourceGraphic"/></filter></defs><path id="tw_icon" class="cls-1" d="M1082.61 3587.2a5.947 5.947 0 0 1-1.82.68 2.911 2.911 0 0 0-2.1-.88 2.826 2.826 0 0 0-2.87 2.78 3.285 3.285 0 0 0 .07.63 8.243 8.243 0 0 1-5.91-2.9 2.645 2.645 0 0 0-.39 1.39 2.726 2.726 0 0 0 1.27 2.31 2.987 2.987 0 0 1-1.3-.34v.03a2.811 2.811 0 0 0 2.31 2.73 3.117 3.117 0 0 1-1.3.04 2.861 2.861 0 0 0 2.68 1.93 5.842 5.842 0 0 1-3.56 1.19 5.123 5.123 0 0 1-.69-.04 8.309 8.309 0 0 0 4.4 1.25 7.968 7.968 0 0 0 8.17-7.9l-.01-.36a5.478 5.478 0 0 0 1.44-1.44 6.09 6.09 0 0 1-1.65.44 2.817 2.817 0 0 0 1.26-1.54z" transform="translate(-1069 -3587)"/></svg>