<svg xmlns="http://www.w3.org/2000/svg" width="17" height="10" viewBox="0 0 17 10"><defs><style>.cls-1{fill:#343332;fill-rule:evenodd}</style></defs><path id="vk_icon" class="cls-1" d="M1134.63 3593.36a22.87 22.87 0 0 1 1.67 1.74 5.284 5.284 0 0 1 .59.89.65.65 0 0 1-.37 1h-2.48a1.884 1.884 0 0 1-1.58-.67c-.34-.36-.66-.75-.99-1.12a2.143 2.143 0 0 0-.44-.41.514.514 0 0 0-.83.2 2.957 2.957 0 0 0-.26 1.21.671.671 0 0 1-.79.79 6.179 6.179 0 0 1-3.54-.79 8.128 8.128 0 0 1-2.39-2.32 31.927 31.927 0 0 1-3.13-5.82c-.2-.46-.06-.7.43-.71.81-.02 1.62-.02 2.42 0a.72.72 0 0 1 .68.52 15.611 15.611 0 0 0 1.64 3.17 2.806 2.806 0 0 0 .62.71.375.375 0 0 0 .64-.2 2.164 2.164 0 0 0 .14-.66 9.556 9.556 0 0 0-.04-2.33.95.95 0 0 0-.79-.89c-.24-.05-.2-.14-.09-.28a.889.889 0 0 1 .76-.39h2.8a.691.691 0 0 1 .6.76v3.23a.952.952 0 0 0 .4.82.544.544 0 0 0 .56-.28 9.784 9.784 0 0 0 1.57-2.52c.19-.4.35-.81.51-1.22a.6.6 0 0 1 .64-.45h2.69a.974.974 0 0 1 .24.02.484.484 0 0 1 .44.74 7.186 7.186 0 0 1-1.08 1.93c-.44.65-.92 1.27-1.37 1.92a.9.9 0 0 0 .13 1.41z" transform="translate(-1120 -3587)"/></svg>